<?xml version="1.0" standalone="no"?>
<!DOCTYPE svg PUBLIC "-//W3C//DTD SVG 20010904//EN"
 "http://www.w3.org/TR/2001/REC-SVG-20010904/DTD/svg10.dtd">
<svg version="1.0" xmlns="http://www.w3.org/2000/svg"
 width="310.000000pt" height="310.000000pt" viewBox="0 0 310.000000 310.000000"
 preserveAspectRatio="xMidYMid meet">
<metadata>
Created by potrace 1.11, written by Peter Selinger 2001-2013
</metadata>
<g transform="translate(0.000000,310.000000) scale(0.100000,-0.100000)"
fill="#000000" stroke="none">
<path d="M7 3093 c-4 -3 -7 -701 -7 -1550 l0 -1543 1550 0 1550 0 0 1550 0
1550 -1543 0 c-849 0 -1547 -3 -1550 -7z m757 -639 c3 -9 31 -149 61 -312 30
-164 63 -346 75 -407 11 -60 27 -146 35 -190 8 -44 26 -141 40 -215 22 -117
32 -172 48 -265 7 -41 25 29 67 265 23 129 48 267 55 305 8 39 21 108 29 155
9 47 22 121 30 165 8 44 31 168 50 275 20 107 38 205 41 218 5 22 5 22 225 22
l220 0 -2 -927 -3 -928 -129 -3 c-88 -2 -133 1 -143 9 -12 10 -14 119 -13 736
1 399 0 726 -2 729 -3 2 -12 -42 -21 -99 -17 -101 -31 -181 -62 -347 -9 -47
-20 -110 -25 -140 -5 -30 -16 -93 -25 -140 -19 -103 -44 -239 -54 -300 -35
-198 -75 -409 -82 -427 -8 -22 -13 -23 -146 -23 -76 0 -143 4 -149 8 -10 7
-16 34 -60 282 -49 276 -74 417 -89 500 -22 117 -45 245 -55 305 -5 28 -16 91
-25 140 -9 50 -21 117 -26 149 -6 33 -13 64 -17 70 -4 6 -9 -317 -12 -719 l-5
-730 -120 -3 c-66 -1 -130 0 -142 3 l-23 5 0 919 c0 505 3 921 7 924 3 4 104
7 224 7 189 0 218 -2 223 -16z m1704 -911 l-3 -928 -150 0 -150 0 -5 749 c-4
638 -7 741 -18 690 -7 -32 -37 -187 -68 -344 -30 -157 -66 -341 -80 -410 -13
-69 -36 -183 -50 -255 -34 -178 -34 -178 -41 -172 -3 3 -5 264 -4 579 l2 573
39 200 c22 110 42 210 45 223 l5 22 240 0 240 0 -2 -927z m295 -707 c45 -18
67 -56 67 -112 0 -39 -5 -51 -34 -80 -29 -29 -41 -34 -79 -34 -38 0 -52 6 -81
34 -31 29 -36 39 -36 80 0 55 22 93 65 112 39 17 58 17 98 0z"/>
</g>
</svg>
